<?xml version="1.0" standalone="no"?>
<!DOCTYPE svg PUBLIC "-//W3C//DTD SVG 20010904//EN"
 "http://www.w3.org/TR/2001/REC-SVG-20010904/DTD/svg10.dtd">
<svg version="1.0" xmlns="http://www.w3.org/2000/svg"
 width="256.000000pt" height="256.000000pt" viewBox="0 0 256.000000 256.000000"
 preserveAspectRatio="xMidYMid meet">

<g transform="translate(0.000000,256.000000) scale(0.100000,-0.100000)"
fill="#000000" stroke="none">
<path d="M1200 2238 c-216 -18 -405 -104 -556 -253 -105 -104 -135 -144 -195
-265 -96 -193 -99 -498 -7 -699 33 -71 105 -180 148 -223 45 -43 95 -52 123
-20 29 32 20 68 -35 140 -112 146 -165 310 -155 482 6 103 12 143 28 172 5 10
8 18 5 18 -2 0 14 37 36 82 93 191 242 319 451 390 156 52 357 51 512 -5 194
-69 344 -202 436 -387 16 -32 29 -63 29 -68 0 -4 -22 -14 -49 -21 -56 -14 -78
-33 -59 -49 7 -5 61 -39 120 -76 108 -66 140 -77 155 -53 23 35 111 253 105
259 -6 6 -65 -3 -114 -18 -12 -3 -19 5 -28 31 -13 39 -65 138 -95 181 -35 50
-188 200 -234 229 -195 122 -395 172 -621 153z"/>
<path d="M985 1631 c-57 -10 -100 -38 -124 -81 -34 -60 -29 -76 25 -84 82 -11
104 -8 104 13 0 20 44 61 65 61 21 0 65 -41 65 -60 0 -27 -42 -72 -114 -124
-83 -59 -150 -135 -169 -190 -8 -25 -13 -47 -9 -50 3 -3 104 -6 224 -6 l218 0
0 60 0 60 -110 0 c-60 0 -110 3 -110 8 0 4 17 18 36 32 139 98 174 137 181
202 6 59 -22 107 -78 135 -48 24 -142 36 -204 24z"/>
<path d="M1457 1485 l-137 -155 0 -60 0 -60 135 0 135 0 0 -50 0 -50 65 0 65
0 0 50 0 50 35 0 35 0 0 55 0 55 -35 0 -35 0 0 160 0 160 -63 0 -63 0 -137
-155z m133 -90 l0 -75 -71 0 -71 0 37 43 c43 50 98 107 102 107 2 0 3 -34 3
-75z"/>
<path d="M2058 1190 c-33 -25 -55 -99 -38 -129 15 -28 51 -42 87 -32 35 9 77
83 68 121 -13 56 -72 76 -117 40z"/>
<path d="M1906 919 c-20 -24 -36 -52 -36 -64 0 -30 47 -75 77 -75 29 0 90 58
99 95 10 39 -23 79 -68 83 -31 3 -40 -2 -72 -39z"/>
<path d="M1702 741 c-22 -17 -43 -39 -47 -50 -9 -30 16 -73 49 -84 60 -20 161
66 135 114 -30 57 -76 63 -137 20z"/>
<path d="M845 695 c-42 -41 -29 -82 35 -115 55 -28 94 -26 119 6 12 15 21 34
21 43 -1 38 -73 91 -125 91 -14 0 -37 -11 -50 -25z"/>
<path d="M1464 646 c-56 -15 -74 -32 -74 -71 0 -46 31 -70 88 -68 60 2 96 29
100 75 5 58 -42 84 -114 64z"/>
<path d="M1150 633 c-31 -12 -50 -37 -50 -68 0 -45 29 -67 94 -73 48 -4 57 -1
80 21 49 49 25 99 -54 116 -28 6 -52 11 -53 10 -1 0 -9 -3 -17 -6z"/>
</g>
</svg>
