<?xml version="1.0" standalone="no"?>
<!DOCTYPE svg PUBLIC "-//W3C//DTD SVG 20010904//EN"
 "http://www.w3.org/TR/2001/REC-SVG-20010904/DTD/svg10.dtd">
<svg version="1.0" xmlns="http://www.w3.org/2000/svg"
 width="1143.000000pt" height="526.000000pt" viewBox="0 0 1143.000000 526.000000"
 preserveAspectRatio="xMidYMid meet">

<g transform="translate(0.000000,526.000000) scale(0.100000,-0.100000)"
fill="#000000" stroke="none">
<path d="M338 5249 c-62 -18 -115 -72 -134 -137 -22 -76 -14 -290 20 -502 47
-300 64 -634 91 -1860 30 -1317 45 -1854 53 -1859 4 -3 39 -31 78 -62 83 -68
142 -99 187 -99 45 0 149 53 186 95 54 62 105 268 131 535 26 274 83 549 156
762 49 144 171 386 249 493 320 444 773 642 969 424 49 -54 74 -107 102 -217
53 -208 54 -334 8 -1297 -23 -491 -16 -594 47 -652 41 -38 139 -77 204 -81 50
-3 66 0 95 20 129 87 172 316 216 1138 26 487 11 817 -48 1034 -49 184 -119
308 -247 437 -247 246 -540 321 -877 223 -212 -61 -402 -181 -664 -419 -108
-98 -210 -175 -233 -175 -11 0 -17 13 -21 43 -8 58 -54 655 -66 857 -39 623
-107 1028 -199 1171 -64 102 -196 157 -303 128z"/>
<path d="M6903 5206 c-60 -15 -96 -37 -118 -70 -33 -49 -37 -252 -42 -1966 -5
-1650 2 -2357 27 -2693 14 -191 23 -227 68 -270 73 -71 160 -86 250 -41 92 46
104 75 127 291 32 309 37 698 32 2428 -5 1882 -14 2218 -60 2274 -38 46 -189
71 -284 47z"/>
<path d="M7781 5210 c-57 -12 -110 -40 -133 -71 -34 -46 -39 -269 -45 -1920
-6 -1863 7 -2699 47 -2919 16 -89 105 -160 201 -160 51 0 133 36 166 71 43 47
64 197 85 624 9 179 12 679 11 1755 -1 1782 -16 2466 -56 2550 -28 57 -167 92
-276 70z"/>
<path d="M4785 4034 c-488 -52 -894 -362 -1140 -869 -166 -342 -237 -652 -237
-1035 1 -375 64 -663 212 -965 263 -535 645 -816 1210 -891 360 -47 918 32
1183 169 141 72 206 158 207 272 0 69 -35 151 -82 190 -68 57 -195 53 -463
-15 -82 -21 -188 -46 -235 -55 -113 -22 -380 -31 -493 -16 -412 55 -726 304
-892 706 -56 137 -87 322 -65 389 18 57 35 61 215 59 154 -1 226 -6 559 -38
273 -26 584 -38 860 -32 287 5 393 17 503 59 78 29 161 111 194 193 22 56 24
72 24 250 -1 222 -19 333 -90 552 -155 472 -509 851 -943 1007 -143 51 -392
84 -527 70z m204 -545 c100 -16 235 -63 314 -110 89 -53 244 -202 296 -284
111 -175 190 -380 198 -510 5 -75 4 -81 -19 -102 -37 -35 -109 -43 -377 -43
-275 0 -477 10 -816 41 -358 32 -488 52 -530 83 -30 22 -24 110 15 221 65 182
141 306 273 442 208 215 417 300 646 262z"/>
<path d="M9905 3894 c-304 -22 -373 -37 -521 -108 -250 -123 -435 -305 -611
-600 -304 -510 -362 -1058 -176 -1641 189 -591 650 -1008 1202 -1086 197 -28
443 3 637 81 312 124 624 430 804 789 255 510 249 1182 -15 1726 -96 198 -236
400 -346 499 -160 143 -428 274 -659 320 -81 16 -235 26 -315 20z m265 -774
c155 -46 274 -115 393 -229 176 -169 269 -393 268 -644 -1 -201 -63 -382 -183
-539 l-29 -37 74 -173 c41 -95 74 -174 73 -175 -3 -3 -86 11 -346 57 -132 23
-181 28 -200 20 -110 -44 -344 -57 -475 -26 -243 57 -432 188 -562 389 -204
313 -192 724 29 1022 137 184 329 306 553 351 102 20 308 12 405 -16z"/>
<path d="M9781 2924 c-79 -16 -195 -60 -211 -80 -7 -8 -18 -14 -24 -14 -18 0
-119 -88 -165 -145 -56 -68 -115 -194 -136 -289 -44 -198 21 -443 154 -583 27
-28 62 -29 85 -4 22 24 15 49 -29 107 -45 59 -84 146 -102 229 -18 82 -12 215
13 285 94 268 355 432 623 391 64 -10 198 -55 211 -71 3 -3 29 -23 58 -44 29
-21 73 -64 97 -97 50 -64 99 -160 87 -170 -4 -4 -24 -12 -44 -19 -21 -6 -38
-15 -38 -20 0 -13 168 -120 189 -120 14 0 29 24 60 96 22 52 41 100 41 106 0
10 -47 7 -80 -6 -11 -4 -20 7 -34 41 -76 187 -260 347 -456 398 -84 22 -218
26 -299 9z"/>
<path d="M9663 2457 c-43 -16 -71 -45 -82 -85 -9 -29 -8 -32 13 -32 13 0 37
-3 54 -6 26 -5 32 -2 44 22 23 49 88 41 88 -11 0 -16 -18 -39 -57 -72 -107
-90 -153 -147 -153 -189 l0 -24 159 0 c173 0 168 -2 167 60 l-1 35 -72 0 c-39
0 -75 3 -78 7 -3 3 21 27 54 53 86 65 110 123 80 189 -23 50 -145 80 -216 53z"/>
<path d="M10094 2423 c-22 -26 -42 -50 -45 -53 -3 -3 -31 -35 -62 -73 -51 -60
-57 -72 -57 -112 l0 -45 100 0 100 0 0 -41 0 -40 48 3 c47 3 47 3 50 41 3 31
7 37 26 37 20 0 22 5 20 38 -1 20 -2 40 -3 45 -1 4 -10 7 -21 7 -18 0 -20 8
-22 118 l-3 117 -46 3 c-45 3 -48 1 -85 -45z m36 -138 l0 -55 -51 0 -50 0 47
55 c26 30 49 55 51 55 2 0 3 -25 3 -55z"/>
<path d="M10483 2130 c-29 -12 -50 -78 -34 -108 23 -43 83 -35 101 14 15 38
12 69 -8 87 -21 19 -27 20 -59 7z"/>
<path d="M10369 1921 c-49 -49 -34 -111 26 -111 24 0 75 58 75 85 0 24 -33 55
-58 55 -7 0 -27 -13 -43 -29z"/>
<path d="M10220 1783 c-33 -23 -40 -33 -40 -66 0 -57 89 -58 127 -1 12 19 13
27 1 50 -16 34 -54 41 -88 17z"/>
<path d="M9594 1752 c-42 -28 -32 -80 19 -103 58 -27 106 2 93 55 -9 37 -82
69 -112 48z"/>
<path d="M10020 1699 c-29 -12 -40 -26 -40 -56 0 -42 46 -57 113 -37 29 9 41
52 22 80 -17 26 -51 30 -95 13z"/>
<path d="M9801 1688 c-64 -23 -23 -108 53 -108 44 0 76 71 44 98 -18 14 -72
20 -97 10z"/>
</g>
</svg>
